<?xml version="1.0" standalone="no"?><!-- Generator: Gravit.io --><svg xmlns="http://www.w3.org/2000/svg" xmlns:xlink="http://www.w3.org/1999/xlink" style="isolation:isolate" viewBox="0 0 700 340" width="700px" height="340px"><path d=" M 683.976 316.993 L 670.75 316.993 L 670.75 267.118 C 670.75 262.976 665.814 259.618 659.727 259.618 L 589.185 259.618 L 589.185 149.409 C 589.185 147.296 587.874 145.281 585.577 143.859 L 568.5 133.296 L 568.5 30.507 C 568.5 28.13 566.844 25.894 564.036 24.479 L 528.308 6.48 C 524.963 4.795 520.508 4.535 516.788 5.81 C 513.071 7.084 510.725 9.675 510.725 12.508 L 510.725 104.472 L 494.476 117.739 C 492.826 119.087 491.922 120.786 491.922 122.54 L 491.922 226.51 L 480.12 226.51 L 480.12 172.703 C 480.12 168.561 475.185 165.203 469.097 165.203 L 417.542 165.203 L 417.542 97.702 C 417.542 93.56 412.607 90.202 406.519 90.202 L 354.721 90.202 C 348.633 90.202 343.698 93.56 343.698 97.702 L 343.698 139.35 L 333.37 139.35 L 333.37 68.804 C 333.37 64.662 328.435 61.304 322.347 61.304 L 270.549 61.304 C 264.461 61.304 259.526 64.662 259.526 68.804 L 259.526 209.72 L 216.823 209.72 L 216.823 116.144 C 216.823 112.002 211.888 108.644 205.8 108.644 L 157.238 108.644 C 151.15 108.644 146.215 112.002 146.215 116.144 L 146.215 171.337 L 115.577 171.337 C 109.49 171.337 104.554 174.695 104.554 178.837 L 104.554 292.245 L 90.976 292.245 L 90.976 213.499 C 90.976 209.357 86.04 205.999 79.953 205.999 L 44.681 205.999 C 38.593 205.999 33.658 209.357 33.658 213.499 L 33.658 316.994 L 16.023 316.994 C 9.935 316.994 5 320.352 5 324.494 C 5 328.636 9.935 331.994 16.023 331.994 L 44.681 331.994 C 50.768 331.994 55.704 328.636 55.704 324.494 L 55.704 220.998 L 68.93 220.998 L 68.93 299.744 C 68.93 303.886 73.865 307.244 79.953 307.244 L 104.554 307.244 L 104.554 312.493 C 104.554 316.635 109.49 319.993 115.577 319.993 C 121.665 319.993 126.6 316.635 126.6 312.493 L 126.6 186.336 L 146.215 186.336 L 146.215 195.499 C 146.215 199.641 151.15 202.999 157.238 202.999 C 163.325 202.999 168.261 199.641 168.261 195.499 L 168.261 123.644 L 194.777 123.644 L 194.777 209.72 L 170.337 209.72 C 164.25 209.72 159.314 213.078 159.314 217.22 L 159.314 288.495 C 159.314 292.637 164.25 295.995 170.337 295.995 C 176.425 295.995 181.36 292.637 181.36 288.495 L 181.36 224.72 L 259.527 224.72 L 259.527 252.496 C 259.527 256.638 264.462 259.996 270.55 259.996 C 276.638 259.996 281.573 256.638 281.573 252.496 L 281.573 76.304 L 311.326 76.304 L 311.326 173.001 C 311.326 177.143 316.261 180.501 322.349 180.501 C 328.436 180.501 333.372 177.143 333.372 173.001 L 333.372 154.351 L 354.722 154.351 C 360.81 154.351 365.745 150.993 365.745 146.851 L 365.745 105.202 L 395.498 105.202 L 395.498 165.203 L 359.921 165.203 C 353.833 165.203 348.898 168.561 348.898 172.703 L 348.898 219.497 L 324.649 219.497 C 318.561 219.497 313.626 222.855 313.626 226.997 L 313.626 286.994 C 313.626 291.136 318.561 294.494 324.649 294.494 C 330.736 294.494 335.672 291.136 335.672 286.994 L 335.672 234.497 L 388.579 234.497 L 388.579 327.492 C 388.579 331.634 393.514 334.992 399.601 334.992 C 405.689 334.992 410.624 331.634 410.624 327.492 L 410.624 226.998 C 410.624 222.856 405.689 219.498 399.601 219.498 L 370.943 219.498 L 370.943 180.204 L 458.076 180.204 L 458.076 273.496 C 458.076 277.638 463.011 280.996 469.099 280.996 C 475.186 280.996 480.121 277.638 480.121 273.496 L 480.121 241.512 L 491.923 241.512 L 491.923 252.497 C 491.923 256.639 496.859 259.997 502.946 259.997 C 509.034 259.997 513.969 256.639 513.969 252.497 L 513.969 125.257 L 530.218 111.99 C 531.869 110.642 532.773 108.943 532.773 107.189 L 532.773 27.394 L 546.456 34.287 L 546.456 136.616 C 546.456 138.729 547.767 140.744 550.064 142.166 L 567.14 152.729 L 567.14 288.497 C 567.14 292.639 572.076 295.997 578.163 295.997 C 584.251 295.997 589.186 292.639 589.186 288.497 L 589.186 274.621 L 648.705 274.621 L 648.705 324.496 C 648.705 328.638 653.641 331.996 659.728 331.996 L 683.977 331.996 C 690.065 331.996 695 328.638 695 324.496 C 695 320.354 690.063 316.993 683.976 316.993 Z " fill="rgb(255,255,255)"/></svg>